<?xml version="1.0" encoding="UTF-8"?>
<svg xmlns="http://www.w3.org/2000/svg" xmlns:xlink="http://www.w3.org/1999/xlink" viewBox="0 0 48 48" width="48px" height="48px">
<g id="surface101028556">
<path style=" stroke:none;fill-rule:nonzero;fill:rgb(40.000001%,40.000001%,40.000001%);fill-opacity:1;" d="M 24 46.800781 C 11.40625 46.800781 1.199219 36.59375 1.199219 24 C 1.199219 11.40625 11.40625 1.199219 24 1.199219 C 36.59375 1.199219 46.800781 11.40625 46.800781 24 C 46.800781 36.59375 36.59375 46.800781 24 46.800781 Z M 24 46.800781 "/>
<path style=" stroke:none;fill-rule:nonzero;fill:rgb(100%,100%,100%);fill-opacity:1;" d="M 22.222656 14.828125 C 18.148438 14.828125 14.828125 18.148438 14.828125 22.222656 C 14.828125 26.292969 18.148438 29.617188 22.222656 29.617188 C 23.890625 29.617188 25.429688 29.050781 26.667969 28.113281 L 31.445312 32.886719 C 31.703125 33.15625 32.082031 33.261719 32.4375 33.167969 C 32.796875 33.074219 33.074219 32.796875 33.167969 32.4375 C 33.261719 32.082031 33.15625 31.703125 32.886719 31.445312 L 28.113281 26.667969 C 29.050781 25.429688 29.617188 23.890625 29.617188 22.222656 C 29.617188 18.148438 26.292969 14.828125 22.222656 14.828125 Z M 22.222656 16.867188 C 25.191406 16.867188 27.578125 19.253906 27.578125 22.222656 C 27.578125 23.648438 27.023438 24.9375 26.121094 25.894531 C 26.035156 25.957031 25.957031 26.03125 25.894531 26.121094 C 24.9375 27.023438 23.648438 27.578125 22.222656 27.578125 C 19.253906 27.578125 16.867188 25.191406 16.867188 22.222656 C 16.867188 19.253906 19.253906 16.867188 22.222656 16.867188 Z M 22.222656 16.867188 "/>
</g>
</svg>
