<?xml version="1.0" encoding="UTF-8"?>
<svg xmlns="http://www.w3.org/2000/svg" xmlns:xlink="http://www.w3.org/1999/xlink" viewBox="0 0 48 48" width="48px" height="48px">
<g id="surface106743548">
<path style=" stroke:none;fill-rule:nonzero;fill:rgb(100%,100%,100%);fill-opacity:1;" d="M 24 4 C 12.972656 4 4 12.523438 4 23 C 4 28.089844 6.175781 32.976562 10 36.542969 L 10 41.992188 C 10 43.480469 11.566406 44.453125 12.898438 43.785156 L 18.15625 41.15625 C 20.078125 41.714844 22.039062 42 24 42 C 35.027344 42 44 33.476562 44 23 C 44 12.523438 35.027344 4 24 4 Z M 24.9375 27.714844 L 20.5 24.167969 L 10 28.835938 L 20.398438 18.433594 C 21.121094 17.714844 22.269531 17.648438 23.0625 18.285156 L 27.5 21.835938 L 38 17.164062 L 27.601562 27.566406 C 26.878906 28.289062 25.730469 28.351562 24.9375 27.714844 Z M 24.9375 27.714844 "/>
</g>
</svg>
